<svg preserveAspectRatio="none" viewBox="579.2 583.2 844 836" style="max-height: 500px" xmlns="http://www.w3.org/2000/svg" version="1.1" width="844" height="836">
<path d="M 976.019 584.981 C 1205.2 571.747 1401.68 746.878 1414.77 976.062 C 1427.87 1205.25 1252.63 1401.62 1023.44 1414.59 C 794.433 1427.54 598.254 1252.47 585.166 1023.48 C 572.078 794.484 747.031 598.203 976.019 584.981 z" fill="rgb(227,26,25)" transform="translate(0,0)"/>
<path d="M 887.757 828.417 C 902.571 827.553 919.884 827.841 934.819 827.772 C 949.997 827.702 968.964 827.283 983.826 828.774 C 980.998 852.958 974.55 880.749 969.548 904.991 C 962.156 942.113 954.501 979.182 946.584 1016.2 C 943.836 1029.44 926.576 1100.62 936.637 1110.54 C 959.346 1132.92 992.256 1102.62 1000.9 1077.94 C 1011.66 1047.22 1016.11 1016.06 1022.69 983.848 C 1033.61 932.544 1044.02 881.132 1053.9 829.618 C 1068.46 827.162 1140.25 827.093 1155.61 829.169 C 1154.05 849.969 1148.09 875.827 1143.92 896.687 L 1124.97 990.211 L 1113.6 1046.6 C 1111.5 1056.99 1109.34 1067.58 1107.56 1078 C 1099.69 1123.99 1126.03 1119.47 1159.31 1113.55 C 1157.94 1128.78 1154.08 1142.5 1145.83 1155.38 C 1120.56 1194.83 1050.5 1201.98 1022.28 1162.16 C 1014.45 1151.11 1010.94 1140.49 1008.2 1127.48 C 991.675 1148.25 980.644 1163.38 956.559 1175.9 C 933.608 1187.83 902.484 1192.93 877.557 1184.87 C 860.732 1179.36 846.857 1167.27 839.1 1151.36 C 820.386 1113.46 834.765 1056.05 843.033 1015.82 L 864.982 911.201 L 876.209 857.032 C 877.494 850.6 879.416 837.056 881.271 831.504 C 884.163 828.724 883.377 829.573 887.757 828.417 z" fill="rgb(254,254,254)" transform="translate(0,0)"/>
</svg>